<?xml version="1.0" encoding="utf-8"?>
<!-- Generator: Adobe Illustrator 16.0.0, SVG Export Plug-In . SVG Version: 6.00 Build 0)  -->
<!DOCTYPE svg PUBLIC "-//W3C//DTD SVG 1.1//EN" "http://www.w3.org/Graphics/SVG/1.1/DTD/svg11.dtd">
<svg version="1.1" id="圖層_1" xmlns="http://www.w3.org/2000/svg" xmlns:xlink="http://www.w3.org/1999/xlink" x="0px" y="0px"
	 width="141px" height="36.121px" viewBox="0 0 141 36.121" enable-background="new 0 0 141 36.121" xml:space="preserve">
<g>
	<g>
		<path fill="#7E318E" d="M39.472,4.108c0.181-0.214,0.417-0.392,0.707-0.521c1.354-0.588,2.95-1.164,4.441-0.914
			c0.733,0.118,1.464,0.276,2.168,0.517c1.099,0.38,1.994,0.847,3.043,1.32c0.958,0.431,1.927,0.969,2.664,1.73
			c1.266,1.308,0.735,3.335,0.23,4.852c-0.415,1.241,0.641,2.029,1.126,3.046c0.764,1.607,0.67,3.6,0.167,5.268
			c-0.458,1.509-1.189,2.795-2.59,3.571c-1.47,0.814-3.417,0.635-4.971,0.233c-1.316-0.339-2.677-0.402-3.608,0.754
			c-0.616,0.76-0.708,1.526-0.813,2.45c-0.079,0.703-0.08,1.714-0.942,1.913c-1.371,0.319-1.774-1.272-1.923-2.298
			c-0.225-1.562,0.906-3.253,1.338-4.718c0.343-1.161,0.553-2.214,0.628-3.423c0.129-2.131,0.366-4.202,0.918-6.263
			c0.28-1.046,0.452-2.052,1.811-1.778c1,0.204,1.291,1.207,1.118,2.121c-0.17,0.9-0.348,1.787-0.429,2.704
			c-0.131,1.446-0.167,2.682,1.402,3.251c0.797,0.291,1.983,0.802,2.816,0.375c0.714-0.364,1.36-1.001,1.475-1.801
			c0.217-1.539-0.709-2.741-1.137-4.175c-0.251-0.847-0.236-1.779-0.588-2.595c-0.401-0.945-1.492-1.501-2.358-1.952
			c-0.744-0.386-2.016-0.914-2.616-0.019c-0.52,0.784-0.477,1.269-1.508,1.48c-1.896,0.392-2.417-1.412-2.883-2.813
			C38.881,5.59,38.963,4.707,39.472,4.108z"/>
		<path fill="#7E318E" d="M58.172,0.11c0.983-0.531,2.146,0.984,2.508,1.73c0.424,0.864,0.874,2.083,0.675,3.076
			c-0.119,0.603-1.124,1.5-1.739,1.536c1.075-0.062,2.147-0.129,3.224-0.193c0.937-0.055,1.877-0.001,2.799,0.182
			c1.544,0.312,3.226,0.631,4.662,1.295c1.044,0.481,1.972,1.177,2.551,2.18c0.449,0.773,0.758,1.685,1.113,2.508
			c0.773,1.781,0.652,4.088,0.566,5.995c-0.054,1.123-0.362,2.041-0.877,3.048c-0.937,1.83-2.053,3.484-2.869,5.391
			c-0.592,1.381-1.206,2.817-1.944,4.102c-0.88,1.529-1.459,3.764-3.184,4.61c-1.547,0.758-3.427,0.81-4.87-0.326
			c-1.503-1.181-0.741-3.398-1.616-4.88c-0.713-1.204-2.354-0.99-3.541-0.99c-1.403,0-3.649,0.627-4.439-0.908
			c-0.366-0.71-0.834-5.151,0.94-4.085c0.74,0.445,1.009,1.542,1.751,1.925c0.396,0.204,0.95,0.154,1.378,0.154
			c0.447,0,0.892,0,1.336,0c0.8,0,1.283-1.175,1.321-1.837c0.031-0.514-0.188-0.409-0.603-0.38c-0.393,0.03-0.826,0.028-1.175-0.183
			c-1.241-0.75-1.03-4.127,0.764-3.94c0.441,0.043,1.226,0.287,1.446-0.276c0.077-0.203,0.167-2.203,0.02-2.265
			c-0.586-0.254-0.96,0.248-1.373,0.567c-1.632,1.266-2.623-1.02-2.116-2.397c0.566-1.313,0.78-3.535,2.447-3.97
			c1.564-0.413,1.362,3.156,1.711,3.059c0.457-0.129,3.585,0.692,3.585,0.692c1.354,0.355,4.371,1.313,3.466,3.276
			c-0.468,1.02-1.849,0.722-2.458,0.029c-0.37-0.425-0.448-0.782-1.008-1.015c-0.431-0.176-1.046-0.323-1.513-0.295
			c-0.623,0.044-0.494,0.478-0.332,1.009c0.162,0.531,0.324,1.162,0.334,1.722c0.775,0.219,1.715,0.549,2.211,1.231
			c0.562,0.768,0.235,1.923-0.779,1.936c-0.605,0.007-1.842-0.543-1.849,0.559c-0.007,0.655-0.069,1.507-0.323,2.113
			c-0.125,0.305-0.366,0.621-0.323,0.997c0.032,0.316,0.052,0.248,0.263,0.32c0.771,0.269,1.542-1.558,1.777-2.038
			c0.195-0.409,0.36-1.012,0.945-0.729c0.521,0.255,0.85,1.124,1.005,1.636c0.306,1.028-0.166,1.184-0.596,2.035
			c-0.531,1.044-2.309,1.934-1.145,2.863c0.959,0.769,1.598,0.35,1.825-0.693c0.723-3.323,2.36-6.513,3.855-9.541
			c0.61-1.232,1.238-2.454,1.888-3.667c0.833-1.561,0.578-3.25-0.507-4.614c-0.893-1.129-2.501-2.575-3.979-2.781
			c-0.667-0.093-1.345-0.041-2.011,0.042c-1.207,0.149-2.421,0.329-3.611,0.586c-1.059,0.233-2.109,0.492-3.149,0.79
			c-0.767,0.218-1.402-0.084-1.835-0.754c-0.46-0.715-0.453-1.821-0.406-2.639c0.049-0.858,0.275-1.429,0.697-2.18
			c0.315-0.563,0.685-1.096,1.015-1.651c0.449-0.753,0.75-1.517,1.098-2.311C57.433,1.194,57.569,0.434,58.172,0.11z"/>
	</g>
	<g>
		<path fill="#7E318E" d="M78.991,11.184c0.178-0.222,0.434-0.401,0.795-0.513c1.519-0.477,3.048-0.479,4.603-0.664
			c0.134-0.018,1.712-0.111,1.712-0.114c0.149-1.21-0.185-2.43,0.065-3.643c0.281-1.381,2.213-0.714,2.739,0.119
			c0.513,0.811,0.445,1.485,0.702,2.358c0.213,0.724,0.339,0.674,1.071,0.634c1.188-0.061,2.418,0.083,3.603,0.14
			c0.802,0.036,1.855-0.041,2.16,0.894c0.384,1.18-0.206,2.62-1.438,2.952c-1.069,0.289-2.209-0.135-3.283-0.195
			c-2.178-0.119-1.593,1.853-1.503,3.277c0.1,1.563,0.097,2.115,1.579,2.629c1.425,0.491,2.921,2.896,1.819,4.271
			c-0.413,0.518-0.642,0.226-1.098-0.044c-0.313-0.187-2.067-1.088-2.028-0.197c0.043,0.929,0.082,1.861,0.125,2.795
			c0.05,1.145,0.488,2.873-0.228,3.859c-0.772,1.066-2.406,0.333-2.921-0.593c-0.536-0.958-0.54-2.071-0.608-3.133
			c-0.065-1.034-0.218-2.117-0.247-3.118c0.013,0.413-2.59,0.752-2.989,0.813c-1.001,0.153-2.208,0.231-3.086,0.755
			c-0.936,0.555-1.997-0.258-1.529-1.317c0.167-0.373,0.544-0.647,0.836-0.915c1.199-1.091,2.932-1.283,4.348-2.006
			c0.895-0.459,1.907-0.947,2.216-1.984c0.149-0.506,0.051-1.083,0.047-1.607c-0.002-0.551-0.074-1.17-0.199-1.708
			c-0.327-1.401-1.183-0.718-2.273-0.436c-1.163,0.301-4.099,1.364-4.799-0.167C78.733,13.35,78.351,11.981,78.991,11.184z"/>
		<path fill="#7E318E" d="M99.707,20.188c-0.036,0.395,0.02,1.675-0.101,1.695c0.732-0.115,1.576,0.095,2.294,0.212
			c0.817,0.135,1.596,0.425,2.431,0.246c0.622-0.132,0.82-0.656,1.096-1.194c0.281-0.545,0.638-1.07,0.814-1.669
			c0.259-0.875-0.017-0.979-0.786-0.708c-0.813,0.284-1.489,0.288-2.348,0.367c-0.468,0.042-0.942,0.086-1.412,0.15
			c-0.543,0.076-1.733,0.19-1.972,0.8C99.714,20.105,99.71,20.137,99.707,20.188z M100.123,13.303
			c-0.174,0.256-0.28,0.569-0.283,0.953c0,0.09,0.061,1.109,0.042,1.112c0.065-0.012,0.129-0.014,0.193-0.021
			c1.788-0.205,3.581-0.4,5.369-0.595c1.377-0.152,2.602-0.033,3.798,0.76c1.171,0.773,1.441,2.035,0.97,3.323
			c-0.38,1.041-0.933,1.836-1.536,2.738c-0.578,0.857-1.201,1.357-0.129,1.958c0.51,0.288,1.066,0.529,1.613,0.725
			c0.826,0.296,1.693,0.479,2.564,0.568c0.627,0.062,1.341-0.036,1.625,0.665c0.518,1.282-1.304,2.138-2.188,2.58
			c-1.342,0.671-2.225,0.937-3.718,0.361c-0.906-0.351-1.584-1.154-2.529-1.399c-2.11-0.547-1.693,4.329-4.31,3.348
			c-1.18-0.441-1.227-1.811-0.848-2.813c0.061-0.165,0.794-1.728,0.85-1.688l-1.813-1.245c-0.772-0.334-1.073,0.131-1.073,0.131
			s-1.345,2.902-1.352,2.912c-0.346,0.735-1.035,1.369-1.783,1.681c-1.153,0.479-2.345-0.005-2.327-1.351
			c0.018-1.369,0.879-2.522,1.226-3.814c0.975-3.648,1.534-7.368,2.072-11.084c0.237-1.62,0.7-2.792,1.882-3.922
			c1.448-1.383,3.373-2.301,5.392-2.39c0.818-0.036,1.654,0.163,2.339,0.612c0.72,0.468,1.012,1.1,1.294,1.864
			c0.254,0.692,0.193,1.665-0.429,2.156c-0.658,0.524-1.441,0.334-2.213,0.402c-0.568,0.051-1.132,0.118-1.693,0.215
			C102.129,12.212,100.723,12.433,100.123,13.303z"/>
	</g>
	<g>
		<path fill="#7E318E" d="M124.732,10.103c0.096,0.138,0.307,0.195,0.689,0.125c0.379-0.074,0.757-0.142,1.136-0.214
			c0.985-0.185,1.97-0.366,2.955-0.545c1.801-0.33,3.603-0.653,5.411-0.958c0.711-0.116,1.414-0.262,2.128-0.363
			c0.864-0.122,1.284-0.698,0.859-1.507c-0.443-0.843-1.242-1.328-2.203-1.294c-0.906,0.035-1.814,0.11-2.718,0.208
			c-0.763,0.081-1.523,0.181-2.279,0.323c-0.793,0.145-1.578,0.266-2.371,0.366c-0.728,0.093-1.508-0.053-2.144,0.362
			c-0.359,0.233-0.657,0.599-0.856,0.976C125.008,8.206,124.237,9.419,124.732,10.103z M121.512,3.218
			c0.281-0.294,0.64-0.57,1.085-0.847c1.787-1.116,3.99-0.592,5.938-0.667c2.02-0.083,4.209,0.104,6.205-0.208
			c2.132-0.333,3.209,0.23,4.446,1.981c0.395,0.556,0.732,1.14,0.987,1.773c0.37,0.912,0.348,1.823,0.563,2.755
			c0.201,0.857,0.56,1.87-0.19,2.56c-0.731,0.674-1.815,0.777-2.718,1.079c-1.14,0.385-2.237,0.549-3.432,0.739
			c-2.197,0.348-4.447,0.671-6.675,0.757c-0.079,0-0.154,0.004-0.23,0.009c-1.481,0.084-3.053,0.343-4.172,1.391
			c-1.611,1.511-1.89,3.681-2.339,5.698c-0.158,0.707-0.309,1.414-0.452,2.125c-0.187,0.907-0.056,2.103-0.622,2.92
			c-0.781,1.129-2.295,0.937-3.052-0.154c-0.822-1.179-0.52-3.391,0.063-4.607c1.254-2.63,2.868-5.429,3.644-8.245
			c0.445-1.62,0.954-3.518,0.452-5.19C120.488,5.347,120.562,4.202,121.512,3.218z"/>
		<path fill="#7E318E" d="M124.272,15.55c0.459-0.375,1.237-0.53,1.711-0.587c2.305-0.267,4.59-0.674,6.901-0.894
			c1.751-0.167,3.843-0.718,5.486,0.101c0.712,0.355,1.904,1.001,1.601,1.988c-0.172,0.56-0.711,0.718-1.23,0.811
			c-1.224,0.225-2.448-0.172-3.667-0.136c-1.354,0.036-2.782,0.592-2.895,2.127c-0.041,0.6,0.491,0.614,0.926,0.658
			c0.585,0.057,1.09,0.143,1.651,0.282c0.415,0.105,0.998,0.234,1.416,0.087c0.38-0.133,0.233-0.596,0.395-0.875
			c0.165-0.284,0.527-0.392,0.835-0.333c0.424,0.083,0.841,0.477,1.122,0.782c0.844,0.91,2.019,4.073-0.411,3.915
			c-0.667-0.043-0.892-0.682-1.453-0.958c-0.692-0.341-1.726-0.076-2.494-0.19c-0.546-0.083-1.535-0.467-1.305,0.478
			c0.09,0.376,0.221,0.727,0.253,1.119c0.007,0.119-0.007,1.231-0.072,1.227c0.384,0.018,0.779-0.025,1.163-0.039
			c0.886-0.033,1.682-0.19,2.552-0.324c0.839-0.128,2.625,0.117,2.636,1.228c0.016,1.729-2.527,1.575-3.635,1.713
			c-0.735,0.091-2.852-0.224-2.81,0.967c0.002,0.087,0.062,0.968,0.04,0.968c0.835-0.047,1.669-0.087,2.503-0.121
			c1.211-0.051,3.902-0.457,4.7,0.803c0.72,1.145-0.259,2.259-1.368,2.325c-0.75,0.044-1.548-0.003-2.298-0.014
			c-2.998-0.043-5.986,0.114-8.976,0.466c-0.973,0.115-1.981,0.54-2.921,0.042c-0.725-0.385-0.873-1.298-0.578-2.013
			c0.383-0.927,1.177-0.968,2.063-0.985c0.617-0.012,1.236-0.023,1.854-0.034c1.004-0.018,2.933,0.47,2.758-1.198
			c-0.15-1.423-2.436-0.603-3.376-0.511c-0.596,0.059-1.152,0.314-1.762,0.373c-1.507,0.142-1.915-1.457-1.13-2.506
			c0.616-0.818,1.907-1.019,2.876-1.046c1.08-0.03,2.514,0.892,3.458,0.031c0.258-0.233,0.179-1.12,0.143-1.438
			c-0.047-0.445-0.045-1.088-0.692-1.066c-0.718,0.021-1.223,0.614-1.901,0.752c-0.721,0.147-1.49-0.311-1.852-0.927
			c-0.817-1.377,0.05-3.417,0.663-4.677c-0.727-0.104-1.514-0.131-2.22-0.333c-0.604-0.172-1.204-0.965-0.973-1.607
			C124.014,15.81,124.127,15.668,124.272,15.55z"/>
	</g>
	<g>
		<g>
			<path fill="#7E318E" d="M26.486,25.886c0.07-0.363,0.068-0.767-0.027-1.204c-0.159-0.736-0.809-1.115-1.002-1.806
				c-0.298-1.069-0.028-2.536-0.028-3.643c0-0.985,0.036-1.979,0.075-2.962c0.033-0.703,0.134-1.395,0.128-2.1
				c-0.013-0.839-0.053-1.977-1.036-2.249c-0.441-0.123-0.857-0.123-1.242-0.388c-0.506-0.345-7.15-5.057-8.42-6.104
				c-0.82-0.674-1.889-1.155-2.875-0.506c-0.729,0.483-1.196,1.292-1.966,1.762C8.534,7.639,6.901,8.575,5.315,9.485
				c-0.872,0.5-1.379,0.906-2.418,0.82c-0.775-0.062-1.719-0.24-2.311,0.435c-0.484,0.549-0.41,1.467-0.438,2.143
				c-0.047,1.108-0.107,2.224-0.021,3.336c0.058,0.714-0.069,1.425-0.033,2.148c0.057,1.182-0.143,2.355-0.083,3.536
				c0.036,0.741,0.144,1.479,0.144,2.221c-0.002,0.994-0.15,2.056,0.19,2.998c0.294,0.813,0.396,0.898,1.334,0.942
				c0.542,0.021,0.982-0.006,1.431-0.313c0.541-0.369,1.239-0.303,1.863-0.287c0.707,0.018,1.407,0.04,2.11,0.115
				c1.344,0.144,2.699,0.115,4.023,0.284c1.434,0.179,2.903,0.251,4.34,0.111c1.244-0.119,2.522-0.02,3.757-0.211
				c1.09-0.169,2.224-0.108,3.335-0.108c0.498,0,0.988,0.101,1.486,0.091C25.297,27.723,26.263,27.015,26.486,25.886z
				 M22.506,17.482c0.03,1.155-0.042,2.311,0.026,3.468c0.054,0.813,0.328,2.453-0.562,2.94c-0.403,0.219-0.824,0.325-1.263,0.442
				c-1.035,0.276-2.025,0.489-3.134,0.405c-0.847-0.063-1.697,0.142-2.551,0.116c-1.884-0.061-3.728,0.063-5.608,0.081
				c-1.242,0.009-2.482-0.219-3.711-0.204c-1.193,0.01-2.074-0.255-2.088-1.59c-0.011-1.091-0.144-2.178-0.132-3.28
				c0.014-1.45,0.159-2.932,0.157-4.351c0-0.594,0.104-1.56,0.535-2.016c0.441-0.473,1.151-0.513,1.681-0.844
				c1.467-0.92,3.087-1.749,4.64-2.542c0.984-0.506,1.923-1.278,3.052-1.274c1.546,0.003,2.899,0.882,4.105,1.762
				c1.331,0.972,2.54,2.049,3.767,3.145c0.402,0.357,0.61,0.491,0.833,0.942c0.277,0.567,0.24,1.184,0.24,1.791
				C22.493,16.808,22.498,17.143,22.506,17.482z M24.877,25.627c0,0,0.007-0.003,0.008-0.007c0.029-0.014,0.051-0.032,0.076-0.05
				C24.958,25.595,24.928,25.613,24.877,25.627z"/>
		</g>
		<path fill-rule="evenodd" clip-rule="evenodd" fill="#F39800" d="M18.909,16.37c-0.015-0.065-0.041-0.133-0.069-0.198
			c-0.118-0.272-0.325-0.291-0.568-0.383c-0.246-0.093-0.486-0.133-0.749-0.076c-0.361,0.081-0.692,0-1.063-0.007
			c-0.352-0.007-0.707,0.019-1.052,0.104c-0.524,0.128-0.706,0.472-0.839,0.968c-0.132,0.493-0.128,1.012-0.072,1.514
			c0.021,0.196,0.027,0.422,0.14,0.594c0.093,0.149,0.19,0.323,0.359,0.398c0.201,0.085,0.504,0.132,0.72,0.146
			c0.32,0.018,0.64,0.038,0.961,0.062c0.539,0.043,1.092,0.039,1.627-0.068c0.384-0.075,0.435-0.438,0.462-0.766
			c0.015-0.175,0.011-0.35,0.025-0.522C18.844,17.557,19.066,16.955,18.909,16.37z"/>
	</g>
</g>
</svg>
