<svg width="168" height="40" viewBox="0 0 168 40" fill="none" xmlns="http://www.w3.org/2000/svg">
<path d="M68.4473 6.22255V0L92.9062 3.01886V6.40738C90.5034 8.81014 87.7926 11.9522 85.205 15.8952C82.679 19.7766 81.4468 22.7955 80.153 26.9849C79.2289 29.9422 79.1057 34.5629 79.5986 37.9514H71.0965C71.1581 35.179 71.7126 31.7904 72.8215 27.8474C73.9305 23.9044 76.5181 19.2221 78.0583 16.881C80.5227 13.1844 84.4657 9.67267 86.8069 7.14669L68.4473 6.22255Z" fill="#ABCE24"/>
<path d="M18.5444 18.4212C17.0042 17.189 15.1559 16.5729 13.0612 16.5729C12.6915 16.5729 12.3219 16.5729 11.9522 16.6345C10.6584 16.7577 9.54945 17.0658 8.62531 17.4354L7.57796 3.08044L0 3.88137L5.9145 39.1835L10.7816 38.6907L9.1798 23.5964C9.30302 23.3499 9.48785 23.1035 9.67268 22.8571C10.412 22.0561 11.2745 21.5633 12.3835 21.44C12.5067 21.44 12.6915 21.44 12.8148 21.44C13.7389 21.44 14.5398 21.7481 15.2791 22.3026C16.1417 22.9803 16.6345 23.7812 16.7578 24.8286L18.298 39.0603L23.2267 38.5674L21.6865 24.1509C21.4401 21.8097 20.3927 19.8382 18.5444 18.4212Z" fill="#ABCE24"/>
<path d="M33.7616 17.8052H33.6384C31.0508 17.8052 28.7713 18.7293 26.923 20.4544C25.0131 22.2411 24.0273 24.459 24.0273 27.0466C24.0273 29.6342 24.9515 31.8521 26.7998 33.6388C28.648 35.4871 30.9276 36.4112 33.5768 36.4112H33.7C36.2876 36.4112 38.5672 35.4871 40.4154 33.762C42.3253 31.9753 43.2495 29.7574 43.3111 27.1698C43.3111 24.5822 42.3869 22.3643 40.5387 20.516C38.6904 18.7909 36.4108 17.8668 33.7616 17.8052ZM30.0651 23.6581C31.0508 22.6723 32.2214 22.2411 33.6384 22.2411H33.7C35.117 22.2411 36.3492 22.7339 37.335 23.7197C38.3207 24.7054 38.8136 25.876 38.8136 27.2314C38.8136 28.5868 38.3207 29.7574 37.2734 30.6815C36.2876 31.6057 35.0554 32.0986 33.7 32.0986H33.6384C32.2214 32.0986 30.9892 31.6057 30.0035 30.6199C29.0177 29.6342 28.5248 28.5252 28.5248 27.1082C28.5864 25.7528 29.0793 24.5822 30.0651 23.6581Z" fill="#ABCE24"/>
<path d="M60.1926 22.6722L60.5622 17.9283L52.3066 17.2506L52.9227 9.79589L47.9939 9.36462L47.3778 16.881L43.6197 16.5729L43.25 21.3785L46.9466 21.6249L45.5912 37.5817L56.5576 38.4443L56.9273 33.7003L50.9512 33.2075L51.8753 22.0562L60.1926 22.6722Z" fill="#ABCE24"/>
<path d="M104.428 26.5536V30.5582H110.465V26.5536H104.428ZM108.802 29.5108H106.03V27.6009H108.802V29.5108Z" fill="white"/>
<path d="M115.085 37.2121H115.886V38.4443L113.237 38.3827L112.683 34.07L110.588 38.7523H109.356L109.602 38.3827L109.972 37.5201L104.119 38.2594V37.2121L106.583 36.904V35.4254H104.981V34.378H106.583V32.8994H104.427V31.8521H110.465V32.8994H108.493V34.378H109.972V35.4254H108.493V36.6576L110.465 36.4112L112.436 32.0369L111.635 25.2599H103.934V24.2741H102.271L101.162 20.9472H99.9295L98.7589 24.2741H96.541L98.1429 19.9615H102.887L104.489 24.2125H106.399V22.3026H104.858V21.2553H106.399V20.0847H108.308V21.2553H109.91V22.3026H108.308V24.2125H111.512L110.958 19.5918H112.991L113.545 24.2125H115.886V25.2599H113.668L114.038 28.4635L114.839 26.8001H116.01L115.763 27.293L114.285 30.4967L115.085 37.2121Z" fill="white"/>
<path d="M103.009 35.9799V37.4585L97.0332 38.6907V37.0272L99.1895 36.6576V29.7573H97.5877V28.71H99.1895V26.4304H97.5877V25.3831H102.64V26.4304H101.099V28.71H102.64V29.7573H101.099V36.3495L103.009 35.9799Z" fill="white"/>
<path d="M97.7727 31.2975H96.9102L97.0334 36.0414H97.9575L97.7727 31.2975Z" fill="white"/>
<path d="M101.963 35.1173H102.887L103.072 31.2975H102.148L101.963 35.1173Z" fill="white"/>
<path d="M116.194 23.1651L115.886 19.8998H114.346L114.592 23.1651H116.194Z" fill="white"/>
<path d="M122.232 36.7191H123.465L123.834 25.4446H122.602L122.232 36.7191Z" fill="white"/>
<path d="M129.686 25.4446H128.393L128.762 35.4869H129.81H130.118L130.056 34.9324L129.686 25.4446Z" fill="white"/>
<path d="M141.702 38.7523L138.621 32.7146L140.901 26.5536V25.4446H133.754V21.8713H138.005H140.346V19.8382H138.005V20.8239H131.66V20.8856V21.8713V35.795H131.721L130.674 38.7523H132.707L133.754 35.795V26.5536H138.868L137.451 30.3734L136.712 28.9564H134.678L136.588 32.7146L134.37 38.7523H136.403L137.759 35.0557L139.669 38.7523H141.702Z" fill="white"/>
<path d="M129.873 23.7812V22.7338H127.224V19.8382H125.129V22.7338H122.418V23.7812H125.129V38.6291H127.224V23.7812H129.873Z" fill="white"/>
<path d="M164.311 33.8851V37.6433H166.961V38.6906H161.909V33.8851H159.937L158.212 38.6906H155.871L157.534 33.8851H155.316V32.7761H167.084V33.8851H164.311Z" fill="white"/>
<path d="M166.59 23.7196V24.8286H155.377V23.7196H159.751V22.0561H156.116V21.0088H159.751V19.5302H162.154V21.0088H165.912V22.0561H162.154V23.7196H166.59Z" fill="white"/>
<path d="M166.961 30.1269V31.1743H161.662V30.1269H163.387V28.4635H162.032V27.3545H163.387V25.9375H165.235V27.3545H166.591V28.4635H165.235V30.1269H166.961Z" fill="white"/>
<path d="M160.615 30.1269V31.1743H155.316V30.1269H156.98V28.4635H155.686V27.3545H156.98V25.9375H158.89V27.3545H160.245V28.4635H158.89V30.1269H160.615Z" fill="white"/>
<path d="M148.662 29.018L148.477 21.1936H147.553L147.738 29.018H148.662Z" fill="white"/>
<path d="M154.391 21.1936H153.282L153.035 29.018H154.144L154.391 21.1936Z" fill="white"/>
<path d="M151.928 19.7766H149.895V31.7288H151.928V19.7766Z" fill="white"/>
<path d="M150.264 38.6291H148.23L149.894 31.6056H151.989L150.264 38.6291Z" fill="white"/>
<path d="M152.482 37.5202H154.577L151.989 31.1128H149.895L152.482 37.5202Z" fill="white"/>
</svg>
