<svg width="87" height="77" viewBox="0 0 87 77" fill="none" xmlns="http://www.w3.org/2000/svg">
<path d="M37.6518 71.8139C37.6518 74.4279 35.4506 76.6291 32.8366 76.6291C30.2227 76.6291 28.0215 74.4279 28.0215 71.8139C28.0215 69.2 30.2227 66.9988 32.8366 66.9988C35.5881 66.9988 37.6518 69.2 37.6518 71.8139Z" fill="#FCCF00"/>
<path d="M50.7208 52.9661C50.7208 54.7546 49.2075 56.2679 47.419 56.2679C45.6305 56.2679 44.1172 54.7546 44.1172 52.9661C44.1172 51.1776 45.6305 49.6643 47.419 49.6643C49.2075 49.6643 50.7208 51.0401 50.7208 52.9661Z" fill="#FCCF00"/>
<path d="M82.5013 72.3642L82.3638 54.6169C82.3638 52.003 80.5753 49.5266 77.9614 48.9763L73.4214 47.8757L68.8814 46.7751C66.2674 46.2248 63.6535 47.463 62.4153 49.8018L54.2983 65.623C53.0601 68.3745 54.5735 71.5387 57.4626 72.2266L67.0929 74.5654L76.7232 76.9042C79.7498 77.4545 82.5013 75.2533 82.5013 72.3642Z" fill="#C8C9CA"/>
<path d="M86.0776 11.6933L85.6649 13.3442L77.6855 42.3727L77.5479 43.0606C77.2728 43.4733 76.9976 44.0236 76.4473 44.2988C75.0716 45.1242 73.4207 44.7115 72.4576 43.3357C72.1825 42.7854 72.0449 42.2351 72.0449 41.8224L72.1825 41.1345L78.0982 11.5558L78.3734 10.0424C78.6485 9.21697 79.1988 8.52909 80.0243 8.11636C81.9504 7.01576 84.4267 7.56606 85.6649 9.49212C85.9401 10.18 86.0776 10.8679 86.0776 11.6933Z" fill="#C8C9CA"/>
<path d="M40.6787 40.1715L29.9478 29.7157C28.4344 28.0648 25.9581 27.7897 24.032 28.8903L20.7302 30.9539L17.4284 33.0176C15.5023 34.2557 14.6769 36.5945 15.5023 38.6582L20.0423 52.966C20.8678 55.3048 23.7569 56.2678 25.8205 55.0297L32.9744 50.6272L40.1284 46.2248C42.0544 44.9866 42.4671 41.96 40.6787 40.1715Z" fill="#C8C9CA"/>
<path d="M6.69748 1.92544L7.38536 3.16362L19.9047 25.1757L20.1799 25.726C20.3175 26.1388 20.3175 26.6891 20.1799 27.1018C19.9047 28.34 18.529 29.1654 17.2908 28.8903C16.8781 28.7527 16.4653 28.4775 16.0526 28.2024L15.6399 27.6521L1.46958 6.46544L0.781703 5.36483C0.506551 4.67696 0.368967 3.98908 0.644119 3.3012C1.05685 1.51272 2.98291 0.274535 4.77139 0.824838C5.59684 1.09999 6.14718 1.37514 6.69748 1.92544Z" fill="#C8C9CA"/>
</svg>
